<?xml version="1.0" encoding="UTF-8"?>
<!DOCTYPE svg PUBLIC "-//W3C//DTD SVG 1.1//EN" "http://www.w3.org/Graphics/SVG/1.1/DTD/svg11.dtd">
<!-- Creator: CorelDRAW (Evaluation Version) -->
<svg xmlns="http://www.w3.org/2000/svg" xml:space="preserve" width="254mm" height="254mm" version="1.1" style="shape-rendering:geometricPrecision; text-rendering:geometricPrecision; image-rendering:optimizeQuality; fill-rule:evenodd; clip-rule:evenodd"
viewBox="0 0 25400 25400"
 xmlns:xlink="http://www.w3.org/1999/xlink"
 xmlns:xodm="http://www.corel.com/coreldraw/odm/2003">
 <defs>
  <style type="text/css">
   <![CDATA[
    .fil1 {fill:#E95226;fill-rule:nonzero}
    .fil0 {fill:#5A5654;fill-rule:nonzero}
   ]]>
  </style>
 </defs>
 <g id="Layer_x0020_1">
  <metadata id="CorelCorpID_0Corel-Layer"/>
  <g id="_1423280074464">
   <g>
    <path class="fil0" d="M11466.41 16808.65l-821.26 0 0 292.62c16.59,26.97 37.6,26.08 65.12,29.28 150.49,17.68 508.12,14.04 662.47,-0.23 146.14,-13.46 164.19,-37.42 160.6,-180.77 -1.27,-52.17 -1.5,-129.17 -66.93,-140.9zm94.39 -226.56c115.17,23.14 189.31,163.8 199,273.02 26.74,301.22 -18.02,495.88 -359.36,510.39 98.45,119.91 257.51,229.43 349.29,349.25 14.59,19.02 36.42,23.81 28.2,56.75l-311.52 0 -415.34 -415.34 -405.92 0 0 415.34 -226.58 0 0 -1189.41 1142.23 0z"/>
    <path class="fil0" d="M8386.57 16812.64c-45.14,21.46 -64.66,49.81 -71.06,98.88 -8.83,67.75 -6.56,536.82 10.89,576.37 16.01,36.38 55.96,53.2 92.97,58.06 76.46,9.99 687.35,6.79 727.4,-10.88 36.38,-16 53.2,-55.97 58.06,-92.97 13.58,-103.67 11.73,-405.31 -0.54,-511.17 -4.09,-35.3 -16.51,-83.72 -46.26,-104.78 -76.35,-54.09 -638.94,1.43 -771.46,-13.51zm-94.05 -226.22c131.71,-26.81 755.75,-22.38 902.31,-4.74 132.57,15.93 221.83,126.8 235.65,255.23 17.21,160.45 15.08,498.83 0.7,661.63 -12.12,136.87 -90.48,255.81 -236.35,273.4 -187.22,22.57 -659.38,19.02 -850.96,0.5 -144.13,-13.88 -238.65,-112.76 -253.97,-255.74 -16.82,-156.51 -16.32,-521.8 2.12,-677.63 13.23,-111.53 82.6,-228.65 200.5,-252.65z"/>
    <path class="fil0" d="M15283.55 16582.1c-6.99,69.16 22.63,154.04 -26.79,209.21l-898.34 753.63 896.8 0 25.31 31.33c5.44,17.12 2.47,35.22 3.98,52.65 4.04,46.84 9.29,113.46 -29.29,142.6l-1331 0 17.87 -199.23 888.35 -763.62 -887.36 0 0 -226.57 1340.47 0z"/>
    <path class="fil0" d="M19449.95 17431.68l0 -849.57 226.58 0 0 1189.42 -236.58 -18.33 -877.35 -831.26 0 849.59c-78.27,-10.88 -185.41,28.39 -245.44,-28.33l0 -1161.09c63.23,5.4 135.57,-8.64 197.19,1.08 87.25,13.77 306.58,272.52 387.82,348.43 180.39,168.6 365.26,334.02 547.78,500.06z"/>
    <polygon class="fil0" points="5968.98,16582.1 5968.98,17054.1 6856.33,17054.1 6856.33,16582.1 7082.86,16582.1 7082.86,17771.52 6856.33,17771.52 6856.33,17299.51 5968.98,17299.51 5968.98,17771.52 5742.6,17771.36 5723.47,16581.98 "/>
    <path class="fil1" d="M16337.8 16582.1c51.31,14.58 344.25,415.79 434.02,453.37l415.57 -453.37 292.66 0 -604.19 670.22 0 519.2 -226.53 0 0 -519.2 -604.15 -670.22 292.62 0z"/>
    <polygon class="fil0" points="12727.45,16582.07 12973.77,16582.07 12973.77,17772.49 12727.45,17772.49 "/>
   </g>
   <g>
    <path class="fil0" d="M12882.01 12851.7c0,-114.34 -92.7,-207.04 -207.05,-207.04 -114.34,0 -207.04,92.7 -207.04,207.04 0,114.35 92.7,207.05 207.04,207.05 114.35,0 207.05,-92.7 207.05,-207.05zm-86.25 2415.85c334.04,-28.21 674.43,-66.9 988.65,-182.68l11.17 -2931.47 -34.68 -24.23c-672.54,-44.44 -1377.01,-81.65 -2048,0.15 -48.39,5.9 -95.41,20.8 -145.42,16.67l-22.04 22.16 0.34 2898.1c11.22,33.18 118.4,53.14 156.49,64.5 271.02,80.71 575.31,123.34 857.75,122.04l0 -1966.94c-334.01,-105.62 -450.07,-544.79 -169.09,-773.18 379.9,-308.78 905.27,113.8 664.59,561.46 -64.49,119.92 -150.96,144.64 -259.76,211.72l0 1981.7zm2239.54 -884.03c25.71,6.41 29.44,-10.63 44.28,-22.01 89.52,-68.56 252.3,-242.57 331.63,-331.39 274.79,-307.63 482.68,-666.33 654.77,-1039.45l325.45 119.44c-427.66,1136.36 -1435.04,2029.13 -2597.26,2367.59 -1168.64,340.35 -2448.33,126.54 -3434.16,-581.19 -620.72,-445.64 -1119.66,-1062.86 -1407.89,-1773 1.14,-15.72 258.47,-117.29 289.11,-122.39 18.06,-2.98 31.04,-6.59 48.17,4.13 16.83,10.54 145.54,305.25 173.99,356.79 205.87,372.76 502.94,733.9 827.46,1006.72l1.09 -1997.6c-15.29,-11.01 -31.98,-5.11 -48.42,-3.13 -153.45,18.28 -418.6,101.64 -577.54,145.45 -556.74,153.4 -1090.39,369.75 -1629.24,573.33 937.08,-658.98 2038.97,-1065.82 3167.41,-1259.95 2113.85,-363.66 4399.24,34.38 6159.08,1274.67 -756.11,-305.26 -1522.24,-599.79 -2327.93,-751.29l0 2033.28z"/>
    <path class="fil1" d="M11543.38 11053.68l567.25 0c147.01,-108.87 372.18,-394.19 559.86,-398.98 181.4,-4.63 407.29,305.53 559.9,398.98l567.25 0 0 -2210.06 1237.64 692.48 0 2210.07c-645.31,-174.56 -1308.15,-289.96 -1978.72,-312.39 -112.9,-63.47 -260.13,-278.31 -386.03,-278.31 -129.83,0 -269.31,216.53 -386.19,278.19 -669.4,44.68 -1331.99,153.78 -1978.6,327.23l0 -2224.79 1237.64 -692.48 0 2210.06z"/>
    <path class="fil1" d="M16611.71 12291.32l-340.02 -156.88c199.18,-1344.88 -374.42,-2702.53 -1482.23,-3479.65 -2123.78,-1489.75 -5084.59,-363.3 -5669.97,2148.25 -103.44,443.9 -121.69,882.44 -56.2,1334.53l-333.95 153.78c-229.12,-1238.14 178.74,-2528.93 1038.42,-3433.22 2047.51,-2153.79 5672.1,-1402.38 6671.23,1388.57 236.22,659.88 285.14,1352.89 172.72,2044.62z"/>
   </g>
  </g>
 </g>
</svg>
